<svg width="436" height="115" viewBox="0 0 436 115" fill="none" xmlns="http://www.w3.org/2000/svg">
<g clip-path="url(#clip0)">
<path d="M58.9332 59.9693C55.8225 63.446 52.0166 66.2314 47.7615 68.1455C43.5063 70.0596 38.8967 71.0597 34.2307 71.0813C16.7624 70.9049 3.17604 56.4417 3.17604 37.9218C3.17604 19.2255 16.7624 4.76226 34.2307 4.76226C46.2291 4.76226 53.1105 9.70091 58.5803 14.9923L58.9332 15.3451L61.227 13.0521L60.8741 12.6994C54.8749 7.23159 48.17 1.76379 34.4071 1.76379C14.998 1.76379 0 17.638 0 37.9218C0 58.2055 14.998 73.9034 34.0542 73.9034C39.1598 73.9518 44.2182 72.9245 48.9001 70.8884C53.5819 68.8522 57.7821 65.8529 61.227 62.0859L61.5799 61.7331L59.2861 59.6166L58.9332 59.9693Z" fill="white"/>
<path d="M97.5752 21.342C94.1108 21.269 90.6677 21.9002 87.4548 23.1974C84.2418 24.4945 81.3259 26.4306 78.884 28.8881C76.442 31.3456 74.5249 34.2734 73.2489 37.4938C71.973 40.7142 71.3647 44.1602 71.4611 47.6227C71.3647 51.0851 71.973 54.5311 73.2489 57.7515C74.5249 60.972 76.442 63.8997 78.884 66.3572C81.3259 68.8148 84.2418 70.7508 87.4548 72.048C90.6677 73.3451 94.1108 73.9763 97.5752 73.9033C101.04 73.9763 104.483 73.3451 107.696 72.048C110.909 70.7508 113.824 68.8148 116.266 66.3572C118.708 63.8997 120.625 60.972 121.901 57.7515C123.177 54.5311 123.786 51.0851 123.689 47.6227C123.786 44.1602 123.177 40.7142 121.901 37.4938C120.625 34.2734 118.708 31.3456 116.266 28.8881C113.824 26.4306 110.909 24.4945 107.696 23.1974C104.483 21.9002 101.04 21.269 97.5752 21.342ZM120.337 47.6227C120.457 50.6676 119.955 53.7051 118.861 56.5493C117.766 59.3935 116.103 61.9845 113.972 64.1639C111.841 66.3433 109.288 68.0653 106.469 69.2243C103.65 70.3834 100.623 70.9552 97.5752 70.9049C94.5413 70.9287 91.5333 70.3461 88.728 69.1912C85.9227 68.0362 83.3766 66.3323 81.2395 64.1796C79.1025 62.0269 77.4175 59.4688 76.2836 56.6558C75.1498 53.8427 74.59 50.8315 74.6371 47.799C74.5167 44.7541 75.019 41.7166 76.1134 38.8724C77.2078 36.0282 78.8712 33.4372 81.0019 31.2578C83.1326 29.0784 85.6857 27.3564 88.5051 26.1974C91.3244 25.0383 94.3507 24.4665 97.3987 24.5168C100.433 24.493 103.441 25.0756 106.246 26.2305C109.051 27.3855 111.597 29.0894 113.734 31.2421C115.871 33.3948 117.556 35.9529 118.69 38.7659C119.824 41.579 120.384 44.5902 120.337 47.6227Z" fill="white"/>
<path d="M138.687 0H135.511V72.7569H138.687V0Z" fill="white"/>
<path d="M156.508 0H153.332V72.7569H156.508V0Z" fill="white"/>
<path d="M193.033 21.3421C179.27 21.3421 168.859 32.6304 168.859 47.4464C168.859 62.6151 179.446 73.727 193.915 73.727C197.962 73.7196 201.944 72.7184 205.513 70.8116C209.082 68.9048 212.128 66.1507 214.383 62.7915L214.736 62.4387L212.265 60.6749L211.912 61.0277C209.934 63.9648 207.288 66.3914 204.19 68.1083C201.092 69.8253 197.631 70.7837 194.091 70.905C181.916 70.905 172.918 61.5568 172.212 48.8574H216.147V47.9755C216.224 41.5313 214.247 35.2299 210.501 29.9847C208.495 27.2508 205.861 25.0388 202.821 23.5347C199.781 22.0307 196.424 21.2787 193.033 21.3421ZM212.795 45.8589H172.212C172.918 33.1596 181.387 24.3405 192.856 24.3405C204.325 24.3405 212.089 35.0997 212.795 45.8589Z" fill="white"/>
<path d="M268.023 61.9094C262.73 68.0827 256.907 70.9048 250.026 70.9048C243.973 70.7659 238.22 68.2404 234.022 63.879C229.825 59.5176 227.522 53.6741 227.617 47.6226C227.522 44.6221 228.032 41.6332 229.116 38.8336C230.199 36.0339 231.835 33.4805 233.925 31.3251C236.016 29.1698 238.518 27.4564 241.284 26.2868C244.05 25.1172 247.022 24.5153 250.026 24.5168C256.907 24.5168 262.553 27.1625 267.847 32.983L268.2 33.3358L270.493 31.2192L270.14 30.8665C265.729 26.2806 260.083 21.5183 250.026 21.5183C246.619 21.5414 243.251 22.2349 240.113 23.5593C236.975 24.8837 234.128 26.8129 231.736 29.237C229.344 31.661 227.453 34.5323 226.171 37.6869C224.889 40.8415 224.241 44.2177 224.264 47.6226C224.188 53.0138 225.806 58.293 228.891 62.7158C231.976 67.1386 236.372 70.4819 241.459 72.2744C246.546 74.0668 252.067 74.2179 257.245 72.7064C262.422 71.1949 266.995 68.0971 270.317 63.8496L270.67 63.4968L268.376 61.3803L268.023 61.9094Z" fill="white"/>
<path d="M285.844 5.64417H282.668V22.5767H274.904V25.5751H282.668V59.6166C282.668 68.4356 287.432 73.5506 295.725 73.5506C298.398 73.593 301.047 73.0512 303.489 71.9632H303.842V68.612L303.136 68.9647C300.891 70.099 298.416 70.7025 295.901 70.7285C287.608 70.7285 285.844 64.7316 285.844 59.6166V25.5751H304.018V22.5767H285.844V5.64417Z" fill="white"/>
<path d="M317.075 2.99841H313.017V9.64795H317.075V2.99841Z" fill="white"/>
<path d="M316.722 22.5768H313.546V72.7394H316.722V22.5768Z" fill="white"/>
<path d="M354.129 21.342C350.665 21.269 347.221 21.9002 344.008 23.1974C340.796 24.4945 337.88 26.4306 335.438 28.8881C332.996 31.3456 331.079 34.2734 329.803 37.4938C328.527 40.7142 327.918 44.1602 328.015 47.6227C328.026 51.0507 328.713 54.4429 330.036 57.6056C331.359 60.7683 333.293 63.6395 335.726 66.0554C338.159 68.4712 341.044 70.3843 344.217 71.6854C347.39 72.9866 350.788 73.6503 354.217 73.6388C357.646 73.6272 361.04 72.9405 364.204 71.6179C367.368 70.2954 370.24 68.3628 372.657 65.9306C375.073 63.4984 376.987 60.6142 378.289 57.4427C379.591 54.2711 380.255 50.8743 380.243 47.4463C380.315 43.9984 379.689 40.5716 378.402 37.3719C377.115 34.1722 375.194 31.2657 372.755 28.8272C370.316 26.3887 367.408 24.4685 364.207 23.1822C361.006 21.8958 357.578 21.2699 354.129 21.342ZM377.067 47.4463C377.163 50.4767 376.642 53.495 375.537 56.3184C374.432 59.1418 372.764 61.7115 370.636 63.8719C368.508 66.0322 365.963 67.7382 363.156 68.8864C360.349 70.0347 357.338 70.6014 354.305 70.5521C351.272 70.576 348.264 69.9933 345.458 68.8384C342.653 67.6835 340.107 65.9795 337.97 63.8268C335.833 61.6741 334.148 59.1161 333.014 56.303C331.88 53.49 331.32 50.4787 331.367 47.4463C331.271 44.4159 331.792 41.3975 332.897 38.5741C334.003 35.7507 335.67 33.181 337.798 31.0207C339.926 28.8604 342.471 27.1544 345.278 26.0061C348.085 24.8579 351.096 24.2912 354.129 24.3405C357.163 24.3166 360.171 24.8992 362.976 26.0542C365.781 27.2091 368.327 28.913 370.465 31.0657C372.602 33.2184 374.287 35.7765 375.42 38.5896C376.554 41.4026 377.114 44.4138 377.067 47.4463Z" fill="white"/>
<path d="M413.944 21.3421C409.907 21.3078 405.946 22.4375 402.535 24.596C399.124 26.7545 396.408 29.8502 394.712 33.5123V22.5767H391.712V72.6688H394.888V44.977C394.888 33.5123 403.181 24.3405 413.944 24.3405C424.707 24.3405 432.118 31.9249 432.118 44.6243V72.6688H435.294V44.4479C435.294 30.1611 427.178 21.3421 414.121 21.3421" fill="white"/>
<path d="M212.971 86.7791H14.292V89.8833H212.971V86.7791Z" fill="white"/>
<path d="M268.375 114.471H272.081V89.954H281.256V86.7792H259.2V89.954H268.375V114.471ZM284.079 114.471H287.785V101.772H300.489V98.773H287.785V89.954H302.253V86.7792H284.079V114.471ZM305.253 114.471H324.486V111.472H308.958V101.772H323.427V98.773H308.958V89.954H324.486V86.7792H305.253V114.471ZM338.425 114.471H341.777V103.183C341.777 99.6549 343.718 96.8329 347.776 96.8329C348.323 96.7778 348.875 96.8449 349.392 97.0293C349.91 97.2137 350.38 97.5108 350.768 97.8991C351.157 98.2873 351.454 98.7571 351.638 99.2743C351.823 99.7915 351.89 100.343 351.835 100.89V114.471H355.187V101.242C355.187 97.0092 353.599 93.8344 348.306 93.8344C347.041 93.7541 345.779 94.0245 344.658 94.6159C343.537 95.2072 342.601 96.0965 341.954 97.1856V86.6028H338.601L338.425 114.471ZM358.187 104.417C358.187 110.238 361.539 114.824 367.891 114.824C374.243 114.824 377.596 110.238 377.596 104.417C377.596 98.5967 374.243 93.8344 367.891 93.8344C361.539 93.8344 358.187 98.4203 358.187 104.417ZM361.716 104.417C361.716 99.4786 364.539 96.8329 367.891 96.8329C371.244 96.8329 374.067 99.4786 374.067 104.417C374.067 109.356 371.244 112.002 367.891 112.002C364.539 112.002 361.716 109.356 361.716 104.417ZM385.36 88.3666H382.007V94.3635H378.655V97.362H382.007V110.061C382.007 113.765 383.419 114.471 386.771 114.471H389.241V111.649H387.653C385.536 111.649 385.183 111.296 385.183 109.885V97.362H389.241V94.3635H385.183L385.36 88.3666ZM406.18 108.121C405.964 109.323 405.294 110.396 404.309 111.118C403.324 111.84 402.099 112.157 400.887 112.002C400.038 112.03 399.192 111.878 398.407 111.555C397.621 111.232 396.912 110.746 396.329 110.129C395.745 109.512 395.299 108.778 395.02 107.976C394.741 107.174 394.636 106.321 394.711 105.475H409.709C409.886 100.537 407.768 94.0108 400.534 94.0108C393.3 94.0108 391.006 98.4203 391.006 104.417C391.006 110.414 394.182 115 400.711 115C402.754 115.157 404.782 114.534 406.385 113.258C407.989 111.982 409.05 110.147 409.356 108.121H406.18ZM394.711 102.477C394.711 101.721 394.863 100.972 395.157 100.276C395.452 99.579 395.884 98.9488 396.427 98.4223C396.97 97.8958 397.614 97.4838 398.319 97.2108C399.025 96.9377 399.778 96.8092 400.534 96.8329C402.048 96.8322 403.503 97.4211 404.59 98.4748C405.677 99.5285 406.311 100.964 406.357 102.477H394.711ZM412.885 114.471H416.238V86.7792H412.885V114.471ZM418.885 108.121C419.061 113.06 422.943 115 427.354 115C431.765 115 435.823 113.413 435.823 108.65C435.823 103.888 432.471 103.712 429.295 103.006C426.119 102.301 422.766 101.948 422.766 99.4786C422.766 97.0092 425.06 96.8329 427.001 96.8329C428.942 96.8329 431.412 97.7147 431.589 100.184H434.941C434.588 95.2454 431.059 93.8344 426.648 93.8344C422.237 93.8344 419.061 95.4218 419.061 99.4786C419.061 103.535 422.413 104.417 425.59 105.123C428.766 105.828 432.118 106.357 432.118 108.827C432.118 111.296 429.295 111.825 427.178 111.825C425.06 111.825 421.884 110.943 421.708 107.945L418.885 108.121Z" fill="white"/>
<path d="M222.852 99.1258V102.124H220.559V80.4294H222.852V89.954C223.456 88.9445 224.307 88.1064 225.327 87.5197C226.346 86.933 227.499 86.6173 228.675 86.6028C229.68 86.6241 230.669 86.8494 231.584 87.2649C232.499 87.6804 233.319 88.2775 233.996 89.0199C234.672 89.7622 235.191 90.6344 235.52 91.5833C235.849 92.5323 235.981 93.5382 235.909 94.5399C235.981 95.5416 235.849 96.5475 235.52 97.4964C235.191 98.4454 234.672 99.3175 233.996 100.06C233.319 100.802 232.499 101.399 231.584 101.815C230.669 102.23 229.68 102.456 228.675 102.477C227.516 102.481 226.374 102.192 225.356 101.637C224.338 101.082 223.477 100.279 222.852 99.3021V99.1258ZM233.616 94.5399C233.69 93.7786 233.603 93.0103 233.362 92.2846C233.12 91.5589 232.729 90.8919 232.213 90.3267C231.698 89.7616 231.07 89.3108 230.369 89.0035C229.668 88.6963 228.911 88.5394 228.146 88.5429C227.404 88.5657 226.674 88.7344 225.998 89.0394C225.322 89.3443 224.712 89.7795 224.204 90.32C223.696 90.8606 223.3 91.4959 223.037 92.1897C222.775 92.8835 222.652 93.6222 222.676 94.3635C222.628 95.1192 222.733 95.8768 222.985 96.5911C223.236 97.3054 223.628 97.9619 224.139 98.5215C224.649 99.081 225.267 99.5322 225.955 99.8481C226.644 100.164 227.389 100.338 228.146 100.36C228.895 100.362 229.636 100.21 230.324 99.9132C231.012 99.6166 231.631 99.182 232.144 98.6363C232.657 98.0906 233.052 97.4454 233.305 96.7408C233.558 96.0361 233.664 95.287 233.616 94.5399Z" fill="white"/>
<path d="M249.496 86.7791H251.966L245.614 102.653C244.379 105.828 242.791 107.063 240.497 107.063C239.397 107.085 238.308 106.843 237.321 106.357L238.026 104.593C238.787 104.989 239.641 105.172 240.497 105.123C241.908 105.123 242.791 104.417 243.673 102.301L236.438 86.7791H238.909L244.555 99.4784L249.496 86.7791Z" fill="white"/>
</g>
<defs>
<clipPath id="clip0">
<rect width="436" height="115" fill="white"/>
</clipPath>
</defs>
</svg>
